<?xml version="1.0" standalone="no"?><!DOCTYPE svg PUBLIC "-//W3C//DTD SVG 1.1//EN" "http://www.w3.org/Graphics/SVG/1.1/DTD/svg11.dtd"><svg width="780" height="580" version="1.1" xmlns="http://www.w3.org/2000/svg" xmlns:xlink="http://www.w3.org/1999/xlink" style="height:580px;width:780px;perspective-origin:390px 290px;transform-origin:390px 290px;"><g transform="translate(40,40)" class="container" style="height:auto;overflow-x:visible;overflow-y:visible;width:auto;perspective-origin:0px 0px;transform-origin:0px 0px;"><g class="group" style="height:auto;overflow-x:visible;overflow-y:visible;width:auto;perspective-origin:0px 0px;transform-origin:0px 0px;"><path class="line" d="M0,177.21518987341778L31.798382078406974,183.5443037974684L63.59676415681395,155.0632911392405L95.3951462352209,151.89873417721523L127.28064716863722,196.20253164556968L159.0790292470442,126.58227848101266L190.87741132545116,164.5569620253165L222.67579340385814,148.7341772151899L254.56129433727443,129.746835443038L286.3596764156814,155.0632911392405L318.1580584940884,139.24050632911394L349.9564405724953,189.873417721519L381.8419415059116,129.746835443038L413.6403235843186,148.7341772151899L445.43870566272557,186.70886075949366L477.23708774113254,193.03797468354432L509.12258867454887,148.7341772151899L540.9209707529559,170.88607594936713L572.7193528313628,164.5569620253165L604.5177349097697,139.24050632911394L636.403235843186,196.20253164556968L668.201617921593,180.37974683544306L700,174.0506329113924" style="height:auto;overflow-x:visible;overflow-y:visible;width:auto;perspective-origin:0px 0px;transform-origin:0px 0px;fill:none;stroke:rgb(255, 195, 195);"/></g><g class="group" style="height:auto;overflow-x:visible;overflow-y:visible;width:auto;perspective-origin:0px 0px;transform-origin:0px 0px;"><path class="line" d="M0,405.0632911392405L31.798382078406974,370.2531645569621L63.59676415681395,401.8987341772152L95.3951462352209,398.7341772151899L127.28064716863722,411.39240506329116L159.0790292470442,392.40506329113924L190.87741132545116,392.40506329113924L222.67579340385814,395.56962025316454L254.56129433727443,430.37974683544303L286.3596764156814,405.0632911392405L318.1580584940884,401.8987341772152L349.9564405724953,405.0632911392405L381.8419415059116,398.7341772151899L413.6403235843186,414.55696202531647L445.43870566272557,414.55696202531647L477.23708774113254,389.24050632911394L509.12258867454887,417.72151898734177L540.9209707529559,427.2151898734177L572.7193528313628,414.55696202531647L604.5177349097697,401.8987341772152L636.403235843186,411.39240506329116L668.201617921593,405.0632911392405L700,408.2278481012658" style="height:auto;overflow-x:visible;overflow-y:visible;width:auto;perspective-origin:0px 0px;transform-origin:0px 0px;fill:none;stroke:rgb(255, 195, 195);"/></g><g class="group" style="height:auto;overflow-x:visible;overflow-y:visible;width:auto;perspective-origin:0px 0px;transform-origin:0px 0px;"><path class="line" d="M0,386.0759493670886L31.798382078406974,373.4177215189873L63.59676415681395,401.8987341772152L95.3951462352209,376.5822784810127L127.28064716863722,405.0632911392405L159.0790292470442,405.0632911392405L190.87741132545116,411.39240506329116L222.67579340385814,414.55696202531647L254.56129433727443,408.2278481012658L286.3596764156814,401.8987341772152L318.1580584940884,424.0506329113924L349.9564405724953,420.8860759493671L381.8419415059116,424.0506329113924L413.6403235843186,414.55696202531647L445.43870566272557,430.37974683544303L477.23708774113254,417.72151898734177L509.12258867454887,417.72151898734177L540.9209707529559,427.2151898734177L572.7193528313628,420.8860759493671L604.5177349097697,417.72151898734177L636.403235843186,411.39240506329116L668.201617921593,408.2278481012658L700,420.8860759493671" style="height:auto;overflow-x:visible;overflow-y:visible;width:auto;perspective-origin:0px 0px;transform-origin:0px 0px;fill:none;stroke:rgb(255, 195, 195);"/></g><g class="group" style="height:auto;overflow-x:visible;overflow-y:visible;width:auto;perspective-origin:0px 0px;transform-origin:0px 0px;"><path class="line" d="M0,221.51898734177217L31.798382078406974,205.69620253164555L63.59676415681395,218.35443037974684L95.3951462352209,234.17721518987344L127.28064716863722,253.16455696202533L159.0790292470442,272.1518987341772L190.87741132545116,265.82278481012656L222.67579340385814,281.6455696202532L254.56129433727443,281.6455696202532L286.3596764156814,303.7974683544304L318.1580584940884,303.7974683544304L349.9564405724953,306.9620253164557L381.8419415059116,319.620253164557L413.6403235843186,313.2911392405063L445.43870566272557,310.126582278481L477.23708774113254,310.126582278481L509.12258867454887,344.9367088607595L540.9209707529559,338.6075949367089L572.7193528313628,354.43037974683546L604.5177349097697,335.44303797468353L636.403235843186,325.94936708860763L668.201617921593,329.1139240506329L700,338.6075949367089" style="height:auto;overflow-x:visible;overflow-y:visible;width:auto;perspective-origin:0px 0px;transform-origin:0px 0px;fill:none;stroke:rgb(255, 195, 195);"/></g><g class="group" style="height:auto;overflow-x:visible;overflow-y:visible;width:auto;perspective-origin:0px 0px;transform-origin:0px 0px;"><path class="line" d="M0,414.55696202531647L31.798382078406974,427.2151898734177L63.59676415681395,408.2278481012658L95.3951462352209,382.9113924050633L127.28064716863722,395.56962025316454L159.0790292470442,367.0886075949367L190.87741132545116,389.24050632911394L222.67579340385814,376.5822784810127L254.56129433727443,332.27848101265823L286.3596764156814,344.9367088607595L318.1580584940884,357.59493670886076L349.9564405724953,363.9240506329114L381.8419415059116,341.77215189873425L413.6403235843186,319.620253164557L445.43870566272557,344.9367088607595L477.23708774113254,310.126582278481L509.12258867454887,322.78481012658233L540.9209707529559,310.126582278481L572.7193528313628,313.2911392405063L604.5177349097697,348.10126582278485L636.403235843186,325.94936708860763L668.201617921593,291.1392405063291L700,313.2911392405063" style="height:auto;overflow-x:visible;overflow-y:visible;width:auto;perspective-origin:0px 0px;transform-origin:0px 0px;fill:none;stroke:rgb(255, 195, 195);"/></g><g class="group" style="height:auto;overflow-x:visible;overflow-y:visible;width:auto;perspective-origin:0px 0px;transform-origin:0px 0px;"><path class="line" d="M0,335.44303797468353L31.798382078406974,395.56962025316454L63.59676415681395,332.27848101265823L95.3951462352209,357.59493670886076L127.28064716863722,354.43037974683546L159.0790292470442,373.4177215189873L190.87741132545116,344.9367088607595L222.67579340385814,389.24050632911394L254.56129433727443,367.0886075949367L286.3596764156814,376.5822784810127L318.1580584940884,354.43037974683546L349.9564405724953,392.40506329113924L381.8419415059116,370.2531645569621L413.6403235843186,382.9113924050633L445.43870566272557,389.24050632911394L477.23708774113254,382.9113924050633L509.12258867454887,398.7341772151899L540.9209707529559,370.2531645569621L572.7193528313628,382.9113924050633L604.5177349097697,382.9113924050633L636.403235843186,370.2531645569621L668.201617921593,398.7341772151899L700,392.40506329113924" style="height:auto;overflow-x:visible;overflow-y:visible;width:auto;perspective-origin:0px 0px;transform-origin:0px 0px;fill:none;stroke:rgb(255, 195, 195);"/></g><g class="group" style="height:auto;overflow-x:visible;overflow-y:visible;width:auto;perspective-origin:0px 0px;transform-origin:0px 0px;"><path class="line" d="M0,430.37974683544303L31.798382078406974,408.2278481012658L63.59676415681395,395.56962025316454L95.3951462352209,424.0506329113924L127.28064716863722,411.39240506329116L159.0790292470442,405.0632911392405L190.87741132545116,408.2278481012658L222.67579340385814,417.72151898734177L254.56129433727443,405.0632911392405L286.3596764156814,405.0632911392405L318.1580584940884,408.2278481012658L349.9564405724953,398.7341772151899L381.8419415059116,395.56962025316454L413.6403235843186,401.8987341772152L445.43870566272557,417.72151898734177L477.23708774113254,424.0506329113924L509.12258867454887,395.56962025316454L540.9209707529559,420.8860759493671L572.7193528313628,417.72151898734177L604.5177349097697,405.0632911392405L636.403235843186,417.72151898734177L668.201617921593,417.72151898734177L700,424.0506329113924" style="height:auto;overflow-x:visible;overflow-y:visible;width:auto;perspective-origin:0px 0px;transform-origin:0px 0px;fill:none;stroke:rgb(255, 195, 195);"/></g><g class="group" style="height:auto;overflow-x:visible;overflow-y:visible;width:auto;perspective-origin:0px 0px;transform-origin:0px 0px;"><path class="line" d="M0,465.1898734177215L31.798382078406974,462.0253164556962L63.59676415681395,458.8607594936709L95.3951462352209,471.5189873417722L127.28064716863722,465.1898734177215L159.0790292470442,452.53164556962025L190.87741132545116,458.8607594936709L222.67579340385814,449.36708860759495L254.56129433727443,449.36708860759495L286.3596764156814,455.69620253164555L318.1580584940884,468.3544303797468L349.9564405724953,458.8607594936709L381.8419415059116,452.53164556962025L413.6403235843186,430.37974683544303L445.43870566272557,443.03797468354435L477.23708774113254,449.36708860759495L509.12258867454887,449.36708860759495L540.9209707529559,455.69620253164555L572.7193528313628,449.36708860759495L604.5177349097697,439.873417721519L636.403235843186,433.54430379746833L668.201617921593,433.54430379746833L700,433.54430379746833" style="height:auto;overflow-x:visible;overflow-y:visible;width:auto;perspective-origin:0px 0px;transform-origin:0px 0px;fill:none;stroke:rgb(255, 195, 195);"/></g><g class="group" style="height:auto;overflow-x:visible;overflow-y:visible;width:auto;perspective-origin:0px 0px;transform-origin:0px 0px;"><path class="line" d="M0,439.873417721519L31.798382078406974,452.53164556962025L63.59676415681395,458.8607594936709L95.3951462352209,430.37974683544303L127.28064716863722,452.53164556962025L159.0790292470442,452.53164556962025L190.87741132545116,439.873417721519L222.67579340385814,449.36708860759495L254.56129433727443,430.37974683544303L286.3596764156814,458.8607594936709L318.1580584940884,449.36708860759495L349.9564405724953,443.03797468354435L381.8419415059116,455.69620253164555L413.6403235843186,458.8607594936709L445.43870566272557,458.8607594936709L477.23708774113254,452.53164556962025L509.12258867454887,462.0253164556962L540.9209707529559,458.8607594936709L572.7193528313628,436.7088607594937L604.5177349097697,439.873417721519L636.403235843186,443.03797468354435L668.201617921593,443.03797468354435L700,452.53164556962025" style="height:auto;overflow-x:visible;overflow-y:visible;width:auto;perspective-origin:0px 0px;transform-origin:0px 0px;fill:none;stroke:rgb(255, 195, 195);"/></g><g class="group" style="height:auto;overflow-x:visible;overflow-y:visible;width:auto;perspective-origin:0px 0px;transform-origin:0px 0px;"><path class="line" d="M0,306.9620253164557L31.798382078406974,272.1518987341772L63.59676415681395,300.6329113924051L95.3951462352209,275.3164556962026L127.28064716863722,268.98734177215186L159.0790292470442,265.82278481012656L190.87741132545116,208.86075949367094L222.67579340385814,218.35443037974684L254.56129433727443,265.82278481012656L286.3596764156814,250L318.1580584940884,215.18987341772154L349.9564405724953,227.84810126582283L381.8419415059116,256.32911392405066L413.6403235843186,212.0253164556962L445.43870566272557,186.70886075949366L477.23708774113254,243.6708860759494L509.12258867454887,272.1518987341772L540.9209707529559,202.53164556962028L572.7193528313628,199.36708860759495L604.5177349097697,237.3417721518987L636.403235843186,161.39240506329116L668.201617921593,234.17721518987344L700,227.84810126582283" style="height:auto;overflow-x:visible;overflow-y:visible;width:auto;perspective-origin:0px 0px;transform-origin:0px 0px;fill:none;stroke:rgb(255, 195, 195);"/></g><g class="group" style="height:auto;overflow-x:visible;overflow-y:visible;width:auto;perspective-origin:0px 0px;transform-origin:0px 0px;"><path class="line" d="M0,398.7341772151899L31.798382078406974,398.7341772151899L63.59676415681395,430.37974683544303L95.3951462352209,392.40506329113924L127.28064716863722,427.2151898734177L159.0790292470442,427.2151898734177L190.87741132545116,398.7341772151899L222.67579340385814,411.39240506329116L254.56129433727443,420.8860759493671L286.3596764156814,408.2278481012658L318.1580584940884,408.2278481012658L349.9564405724953,401.8987341772152L381.8419415059116,417.72151898734177L413.6403235843186,408.2278481012658L445.43870566272557,430.37974683544303L477.23708774113254,430.37974683544303L509.12258867454887,420.8860759493671L540.9209707529559,424.0506329113924L572.7193528313628,443.03797468354435L604.5177349097697,427.2151898734177L636.403235843186,443.03797468354435L668.201617921593,420.8860759493671L700,420.8860759493671" style="height:auto;overflow-x:visible;overflow-y:visible;width:auto;perspective-origin:0px 0px;transform-origin:0px 0px;fill:none;stroke:rgb(255, 195, 195);"/></g><g class="group" style="height:auto;overflow-x:visible;overflow-y:visible;width:auto;perspective-origin:0px 0px;transform-origin:0px 0px;"><path class="line" d="M0,300.6329113924051L31.798382078406974,300.6329113924051L63.59676415681395,310.126582278481L95.3951462352209,341.77215189873425L127.28064716863722,268.98734177215186L159.0790292470442,259.493670886076L190.87741132545116,265.82278481012656L222.67579340385814,218.35443037974684L254.56129433727443,234.17721518987344L286.3596764156814,158.22784810126583L318.1580584940884,183.5443037974684L349.9564405724953,136.0759493670886L381.8419415059116,139.24050632911394L413.6403235843186,151.89873417721523L445.43870566272557,110.75949367088606L477.23708774113254,110.75949367088606L509.12258867454887,79.11392405063289L540.9209707529559,91.77215189873417L572.7193528313628,66.45569620253167L604.5177349097697,79.11392405063289L636.403235843186,107.59493670886077L668.201617921593,85.44303797468356L700,88.60759493670889" style="height:auto;overflow-x:visible;overflow-y:visible;width:auto;perspective-origin:0px 0px;transform-origin:0px 0px;fill:none;stroke:rgb(255, 195, 195);"/></g><g class="group" style="height:auto;overflow-x:visible;overflow-y:visible;width:auto;perspective-origin:0px 0px;transform-origin:0px 0px;"><path class="line" d="M0,98.10126582278484L31.798382078406974,164.5569620253165L63.59676415681395,158.22784810126583L95.3951462352209,151.89873417721523L127.28064716863722,101.26582278481017L159.0790292470442,180.37974683544306L190.87741132545116,151.89873417721523L222.67579340385814,151.89873417721523L254.56129433727443,161.39240506329116L286.3596764156814,199.36708860759495L318.1580584940884,158.22784810126583L349.9564405724953,132.91139240506334L381.8419415059116,186.70886075949366L413.6403235843186,212.0253164556962L445.43870566272557,158.22784810126583L477.23708774113254,170.88607594936713L509.12258867454887,148.7341772151899L540.9209707529559,139.24050632911394L572.7193528313628,167.72151898734177L604.5177349097697,174.0506329113924L636.403235843186,183.5443037974684L668.201617921593,113.92405063291145L700,148.7341772151899" style="height:auto;overflow-x:visible;overflow-y:visible;width:auto;perspective-origin:0px 0px;transform-origin:0px 0px;fill:none;stroke:rgb(255, 195, 195);"/></g><g class="group" style="height:auto;overflow-x:visible;overflow-y:visible;width:auto;perspective-origin:0px 0px;transform-origin:0px 0px;"><path class="line" d="M0,379.746835443038L31.798382078406974,370.2531645569621L63.59676415681395,335.44303797468353L95.3951462352209,344.9367088607595L127.28064716863722,322.78481012658233L159.0790292470442,351.2658227848101L190.87741132545116,313.2911392405063L222.67579340385814,294.30379746835445L254.56129433727443,313.2911392405063L286.3596764156814,310.126582278481L318.1580584940884,313.2911392405063L349.9564405724953,303.7974683544304L381.8419415059116,294.30379746835445L413.6403235843186,303.7974683544304L445.43870566272557,259.493670886076L477.23708774113254,310.126582278481L509.12258867454887,294.30379746835445L540.9209707529559,291.1392405063291L572.7193528313628,316.45569620253167L604.5177349097697,319.620253164557L636.403235843186,303.7974683544304L668.201617921593,300.6329113924051L700,300.6329113924051" style="height:auto;overflow-x:visible;overflow-y:visible;width:auto;perspective-origin:0px 0px;transform-origin:0px 0px;fill:none;stroke:rgb(255, 195, 195);"/></g><g class="group" style="height:auto;overflow-x:visible;overflow-y:visible;width:auto;perspective-origin:0px 0px;transform-origin:0px 0px;"><path class="line" d="M0,446.2025316455696L31.798382078406974,455.69620253164555L63.59676415681395,439.873417721519L95.3951462352209,452.53164556962025L127.28064716863722,468.3544303797468L159.0790292470442,446.2025316455696L190.87741132545116,455.69620253164555L222.67579340385814,468.3544303797468L254.56129433727443,455.69620253164555L286.3596764156814,452.53164556962025L318.1580584940884,471.5189873417722L349.9564405724953,462.0253164556962L381.8419415059116,462.0253164556962L413.6403235843186,455.69620253164555L445.43870566272557,455.69620253164555L477.23708774113254,455.69620253164555L509.12258867454887,462.0253164556962L540.9209707529559,458.8607594936709L572.7193528313628,449.36708860759495L604.5177349097697,455.69620253164555L636.403235843186,452.53164556962025L668.201617921593,462.0253164556962L700,446.2025316455696" style="height:auto;overflow-x:visible;overflow-y:visible;width:auto;perspective-origin:0px 0px;transform-origin:0px 0px;fill:none;stroke:rgb(255, 195, 195);"/></g><g class="group" style="height:auto;overflow-x:visible;overflow-y:visible;width:auto;perspective-origin:0px 0px;transform-origin:0px 0px;"><path class="line" d="M0,373.4177215189873L31.798382078406974,370.2531645569621L63.59676415681395,376.5822784810127L95.3951462352209,386.0759493670886L127.28064716863722,389.24050632911394L159.0790292470442,414.55696202531647L190.87741132545116,392.40506329113924L222.67579340385814,401.8987341772152L254.56129433727443,405.0632911392405L286.3596764156814,417.72151898734177L318.1580584940884,414.55696202531647L349.9564405724953,443.03797468354435L381.8419415059116,420.8860759493671L413.6403235843186,433.54430379746833L445.43870566272557,436.7088607594937L477.23708774113254,420.8860759493671L509.12258867454887,417.72151898734177L540.9209707529559,430.37974683544303L572.7193528313628,420.8860759493671L604.5177349097697,439.873417721519L636.403235843186,433.54430379746833L668.201617921593,455.69620253164555L700,452.53164556962025" style="height:auto;overflow-x:visible;overflow-y:visible;width:auto;perspective-origin:0px 0px;transform-origin:0px 0px;fill:none;stroke:rgb(255, 195, 195);"/></g><g class="group" style="height:auto;overflow-x:visible;overflow-y:visible;width:auto;perspective-origin:0px 0px;transform-origin:0px 0px;"><path class="line" d="M0,493.6708860759494L31.798382078406974,500L63.59676415681395,496.83544303797464L95.3951462352209,496.83544303797464L127.28064716863722,490.50632911392404L159.0790292470442,490.50632911392404L190.87741132545116,496.83544303797464L222.67579340385814,496.83544303797464L254.56129433727443,496.83544303797464L286.3596764156814,496.83544303797464L318.1580584940884,493.6708860759494L349.9564405724953,493.6708860759494L381.8419415059116,496.83544303797464L413.6403235843186,493.6708860759494L445.43870566272557,500L477.23708774113254,490.50632911392404L509.12258867454887,490.50632911392404L540.9209707529559,493.6708860759494L572.7193528313628,493.6708860759494L604.5177349097697,496.83544303797464L636.403235843186,500L668.201617921593,493.6708860759494L700,493.6708860759494" style="height:auto;overflow-x:visible;overflow-y:visible;width:auto;perspective-origin:0px 0px;transform-origin:0px 0px;fill:none;stroke:rgb(255, 195, 195);"/></g><g class="group" style="height:auto;overflow-x:visible;overflow-y:visible;width:auto;perspective-origin:0px 0px;transform-origin:0px 0px;"><path class="line" d="M0,322.78481012658233L31.798382078406974,300.6329113924051L63.59676415681395,313.2911392405063L95.3951462352209,354.43037974683546L127.28064716863722,313.2911392405063L159.0790292470442,357.59493670886076L190.87741132545116,373.4177215189873L222.67579340385814,370.2531645569621L254.56129433727443,351.2658227848101L286.3596764156814,344.9367088607595L318.1580584940884,370.2531645569621L349.9564405724953,332.27848101265823L381.8419415059116,373.4177215189873L413.6403235843186,363.9240506329114L445.43870566272557,363.9240506329114L477.23708774113254,373.4177215189873L509.12258867454887,363.9240506329114L540.9209707529559,392.40506329113924L572.7193528313628,351.2658227848101L604.5177349097697,373.4177215189873L636.403235843186,386.0759493670886L668.201617921593,370.2531645569621L700,354.43037974683546" style="height:auto;overflow-x:visible;overflow-y:visible;width:auto;perspective-origin:0px 0px;transform-origin:0px 0px;fill:none;stroke:rgb(255, 195, 195);"/></g><g class="group" style="height:auto;overflow-x:visible;overflow-y:visible;width:auto;perspective-origin:0px 0px;transform-origin:0px 0px;"><path class="line" d="M0,202.53164556962028L31.798382078406974,199.36708860759495L63.59676415681395,234.17721518987344L95.3951462352209,202.53164556962028L127.28064716863722,250L159.0790292470442,199.36708860759495L190.87741132545116,265.82278481012656L222.67579340385814,284.8101265822785L254.56129433727443,278.4810126582279L286.3596764156814,272.1518987341772L318.1580584940884,291.1392405063291L349.9564405724953,287.9746835443038L381.8419415059116,300.6329113924051L413.6403235843186,303.7974683544304L445.43870566272557,354.43037974683546L477.23708774113254,329.1139240506329L509.12258867454887,329.1139240506329L540.9209707529559,335.44303797468353L572.7193528313628,338.6075949367089L604.5177349097697,335.44303797468353L636.403235843186,332.27848101265823L668.201617921593,357.59493670886076L700,363.9240506329114" style="height:auto;overflow-x:visible;overflow-y:visible;width:auto;perspective-origin:0px 0px;transform-origin:0px 0px;fill:none;stroke:rgb(255, 195, 195);"/></g><g class="group" style="height:auto;overflow-x:visible;overflow-y:visible;width:auto;perspective-origin:0px 0px;transform-origin:0px 0px;"><path class="line" d="M0,360.7594936708861L31.798382078406974,389.24050632911394L63.59676415681395,357.59493670886076L95.3951462352209,379.746835443038L127.28064716863722,335.44303797468353L159.0790292470442,351.2658227848101L190.87741132545116,379.746835443038L222.67579340385814,363.9240506329114L254.56129433727443,370.2531645569621L286.3596764156814,376.5822784810127L318.1580584940884,360.7594936708861L349.9564405724953,363.9240506329114L381.8419415059116,354.43037974683546L413.6403235843186,373.4177215189873L445.43870566272557,344.9367088607595L477.23708774113254,363.9240506329114L509.12258867454887,379.746835443038L540.9209707529559,382.9113924050633L572.7193528313628,382.9113924050633L604.5177349097697,367.0886075949367L636.403235843186,373.4177215189873L668.201617921593,376.5822784810127L700,360.7594936708861" style="height:auto;overflow-x:visible;overflow-y:visible;width:auto;perspective-origin:0px 0px;transform-origin:0px 0px;fill:none;stroke:rgb(255, 195, 195);"/></g><g class="group" style="height:auto;overflow-x:visible;overflow-y:visible;width:auto;perspective-origin:0px 0px;transform-origin:0px 0px;"><path class="line" d="M0,487.34177215189874L31.798382078406974,487.34177215189874L63.59676415681395,493.6708860759494L95.3951462352209,490.50632911392404L127.28064716863722,490.50632911392404L159.0790292470442,496.83544303797464L190.87741132545116,493.6708860759494L222.67579340385814,490.50632911392404L254.56129433727443,490.50632911392404L286.3596764156814,487.34177215189874L318.1580584940884,493.6708860759494L349.9564405724953,496.83544303797464L381.8419415059116,496.83544303797464L413.6403235843186,490.50632911392404L445.43870566272557,493.6708860759494L477.23708774113254,490.50632911392404L509.12258867454887,496.83544303797464L540.9209707529559,493.6708860759494L572.7193528313628,496.83544303797464L604.5177349097697,493.6708860759494L636.403235843186,493.6708860759494L668.201617921593,493.6708860759494L700,490.50632911392404" style="height:auto;overflow-x:visible;overflow-y:visible;width:auto;perspective-origin:0px 0px;transform-origin:0px 0px;fill:none;stroke:rgb(255, 195, 195);"/></g><g class="group" style="height:auto;overflow-x:visible;overflow-y:visible;width:auto;perspective-origin:0px 0px;transform-origin:0px 0px;"><path class="line" d="M0,446.2025316455696L31.798382078406974,436.7088607594937L63.59676415681395,436.7088607594937L95.3951462352209,443.03797468354435L127.28064716863722,458.8607594936709L159.0790292470442,430.37974683544303L190.87741132545116,427.2151898734177L222.67579340385814,430.37974683544303L254.56129433727443,446.2025316455696L286.3596764156814,436.7088607594937L318.1580584940884,424.0506329113924L349.9564405724953,458.8607594936709L381.8419415059116,443.03797468354435L413.6403235843186,452.53164556962025L445.43870566272557,443.03797468354435L477.23708774113254,424.0506329113924L509.12258867454887,427.2151898734177L540.9209707529559,439.873417721519L572.7193528313628,446.2025316455696L604.5177349097697,427.2151898734177L636.403235843186,433.54430379746833L668.201617921593,436.7088607594937L700,414.55696202531647" style="height:auto;overflow-x:visible;overflow-y:visible;width:auto;perspective-origin:0px 0px;transform-origin:0px 0px;fill:none;stroke:rgb(255, 195, 195);"/></g><g class="group" style="height:auto;overflow-x:visible;overflow-y:visible;width:auto;perspective-origin:0px 0px;transform-origin:0px 0px;"><path class="line" d="M0,496.83544303797464L31.798382078406974,484.17721518987344L63.59676415681395,487.34177215189874L95.3951462352209,490.50632911392404L127.28064716863722,484.17721518987344L159.0790292470442,487.34177215189874L190.87741132545116,490.50632911392404L222.67579340385814,496.83544303797464L254.56129433727443,484.17721518987344L286.3596764156814,493.6708860759494L318.1580584940884,490.50632911392404L349.9564405724953,481.01265822784814L381.8419415059116,487.34177215189874L413.6403235843186,496.83544303797464L445.43870566272557,487.34177215189874L477.23708774113254,487.34177215189874L509.12258867454887,484.17721518987344L540.9209707529559,487.34177215189874L572.7193528313628,487.34177215189874L604.5177349097697,490.50632911392404L636.403235843186,484.17721518987344L668.201617921593,493.6708860759494L700,490.50632911392404" style="height:auto;overflow-x:visible;overflow-y:visible;width:auto;perspective-origin:0px 0px;transform-origin:0px 0px;fill:none;stroke:rgb(255, 195, 195);"/></g><g class="group" style="height:auto;overflow-x:visible;overflow-y:visible;width:auto;perspective-origin:0px 0px;transform-origin:0px 0px;"><path class="line" d="M0,496.83544303797464L31.798382078406974,496.83544303797464L63.59676415681395,500L95.3951462352209,496.83544303797464L127.28064716863722,493.6708860759494L159.0790292470442,493.6708860759494L190.87741132545116,500L222.67579340385814,496.83544303797464L254.56129433727443,493.6708860759494L286.3596764156814,496.83544303797464L318.1580584940884,493.6708860759494L349.9564405724953,496.83544303797464L381.8419415059116,500L413.6403235843186,496.83544303797464L445.43870566272557,490.50632911392404L477.23708774113254,496.83544303797464L509.12258867454887,493.6708860759494L540.9209707529559,490.50632911392404L572.7193528313628,496.83544303797464L604.5177349097697,500L636.403235843186,496.83544303797464L668.201617921593,500L700,500" style="height:auto;overflow-x:visible;overflow-y:visible;width:auto;perspective-origin:0px 0px;transform-origin:0px 0px;fill:none;stroke:rgb(255, 195, 195);"/></g><g class="group" style="height:auto;overflow-x:visible;overflow-y:visible;width:auto;perspective-origin:0px 0px;transform-origin:0px 0px;"><path class="line" d="M0,462.0253164556962L31.798382078406974,452.53164556962025L63.59676415681395,446.2025316455696L95.3951462352209,430.37974683544303L127.28064716863722,452.53164556962025L159.0790292470442,439.873417721519L190.87741132545116,458.8607594936709L222.67579340385814,433.54430379746833L254.56129433727443,439.873417721519L286.3596764156814,446.2025316455696L318.1580584940884,449.36708860759495L349.9564405724953,452.53164556962025L381.8419415059116,443.03797468354435L413.6403235843186,430.37974683544303L445.43870566272557,439.873417721519L477.23708774113254,430.37974683544303L509.12258867454887,443.03797468354435L540.9209707529559,417.72151898734177L572.7193528313628,439.873417721519L604.5177349097697,427.2151898734177L636.403235843186,443.03797468354435L668.201617921593,443.03797468354435L700,446.2025316455696" style="height:auto;overflow-x:visible;overflow-y:visible;width:auto;perspective-origin:0px 0px;transform-origin:0px 0px;fill:none;stroke:rgb(255, 195, 195);"/></g><g class="group" style="height:auto;overflow-x:visible;overflow-y:visible;width:auto;perspective-origin:0px 0px;transform-origin:0px 0px;"><path class="line" d="M0,493.6708860759494L31.798382078406974,490.50632911392404L63.59676415681395,496.83544303797464L95.3951462352209,484.17721518987344L127.28064716863722,490.50632911392404L159.0790292470442,493.6708860759494L190.87741132545116,490.50632911392404L222.67579340385814,490.50632911392404L254.56129433727443,490.50632911392404L286.3596764156814,484.17721518987344L318.1580584940884,493.6708860759494L349.9564405724953,487.34177215189874L381.8419415059116,487.34177215189874L413.6403235843186,481.01265822784814L445.43870566272557,490.50632911392404L477.23708774113254,481.01265822784814L509.12258867454887,481.01265822784814L540.9209707529559,487.34177215189874L572.7193528313628,487.34177215189874L604.5177349097697,493.6708860759494L636.403235843186,481.01265822784814L668.201617921593,493.6708860759494L700,487.34177215189874" style="height:auto;overflow-x:visible;overflow-y:visible;width:auto;perspective-origin:0px 0px;transform-origin:0px 0px;fill:none;stroke:rgb(255, 195, 195);"/></g><g class="x axis" transform="translate(0,504.5)" style="height:auto;overflow-x:visible;overflow-y:visible;width:auto;perspective-origin:0px 0px;transform-origin:0px 0px;"><g class="tick" transform="translate(63.59676415681395,0)" style="height:auto;overflow-x:visible;overflow-y:visible;width:auto;perspective-origin:0px 0px;transform-origin:0px 0px;"><line y2="6" x2="0" style="height:auto;overflow-x:visible;overflow-y:visible;width:auto;perspective-origin:0px 0px;transform-origin:0px 0px;fill:none;shape-rendering:crispEdges;stroke:rgb(163, 163, 163);"/><text dy=".71em" y="9" x="0" style="display:block;font-family:Helvetica, Arial, sans-serif;font-size:12px;height:14px;overflow-x:visible;overflow-y:visible;white-space:nowrap;width:26.6875px;perspective-origin:13.3438px 7px;transform-origin:0px 0px;fill:rgb(163, 163, 163);text-anchor:middle;">1995</text></g><g class="tick" transform="translate(222.67579340385814,0)" style="height:auto;overflow-x:visible;overflow-y:visible;width:auto;perspective-origin:0px 0px;transform-origin:0px 0px;"><line y2="6" x2="0" style="height:auto;overflow-x:visible;overflow-y:visible;width:auto;perspective-origin:0px 0px;transform-origin:0px 0px;fill:none;shape-rendering:crispEdges;stroke:rgb(163, 163, 163);"/><text dy=".71em" y="9" x="0" style="display:block;font-family:Helvetica, Arial, sans-serif;font-size:12px;height:14px;overflow-x:visible;overflow-y:visible;white-space:nowrap;width:26.6875px;perspective-origin:13.3438px 7px;transform-origin:0px 0px;fill:rgb(163, 163, 163);text-anchor:middle;">2000</text></g><g class="tick" transform="translate(381.8419415059116,0)" style="height:auto;overflow-x:visible;overflow-y:visible;width:auto;perspective-origin:0px 0px;transform-origin:0px 0px;"><line y2="6" x2="0" style="height:auto;overflow-x:visible;overflow-y:visible;width:auto;perspective-origin:0px 0px;transform-origin:0px 0px;fill:none;shape-rendering:crispEdges;stroke:rgb(163, 163, 163);"/><text dy=".71em" y="9" x="0" style="display:block;font-family:Helvetica, Arial, sans-serif;font-size:12px;height:14px;overflow-x:visible;overflow-y:visible;white-space:nowrap;width:26.6875px;perspective-origin:13.3438px 7px;transform-origin:0px 0px;fill:rgb(163, 163, 163);text-anchor:middle;">2005</text></g><g class="tick" transform="translate(540.9209707529559,0)" style="height:auto;overflow-x:visible;overflow-y:visible;width:auto;perspective-origin:0px 0px;transform-origin:0px 0px;"><line y2="6" x2="0" style="height:auto;overflow-x:visible;overflow-y:visible;width:auto;perspective-origin:0px 0px;transform-origin:0px 0px;fill:none;shape-rendering:crispEdges;stroke:rgb(163, 163, 163);"/><text dy=".71em" y="9" x="0" style="display:block;font-family:Helvetica, Arial, sans-serif;font-size:12px;height:14px;overflow-x:visible;overflow-y:visible;white-space:nowrap;width:26.6875px;perspective-origin:13.3438px 7px;transform-origin:0px 0px;fill:rgb(163, 163, 163);text-anchor:middle;">2010</text></g><g class="tick" transform="translate(700,0)" style="height:auto;overflow-x:visible;overflow-y:visible;width:auto;perspective-origin:0px 0px;transform-origin:0px 0px;"><line y2="6" x2="0" style="height:auto;overflow-x:visible;overflow-y:visible;width:auto;perspective-origin:0px 0px;transform-origin:0px 0px;fill:none;shape-rendering:crispEdges;stroke:rgb(163, 163, 163);"/><text dy=".71em" y="9" x="0" style="display:block;font-family:Helvetica, Arial, sans-serif;font-size:12px;height:14px;overflow-x:visible;overflow-y:visible;white-space:nowrap;width:26.6875px;perspective-origin:13.3438px 7px;transform-origin:0px 0px;fill:rgb(163, 163, 163);text-anchor:middle;">2015</text></g><path class="domain" d="M0,6V0H700V6" style="height:auto;overflow-x:visible;overflow-y:visible;width:auto;perspective-origin:0px 0px;transform-origin:0px 0px;fill:none;shape-rendering:crispEdges;stroke:rgb(163, 163, 163);"/></g><g class="y axis" transform="translate(-2.5,0)" style="height:auto;overflow-x:visible;overflow-y:visible;width:auto;perspective-origin:0px 0px;transform-origin:0px 0px;"><g class="tick" transform="translate(0,500)" style="height:auto;overflow-x:visible;overflow-y:visible;width:auto;perspective-origin:0px 0px;transform-origin:0px 0px;"><line x2="-6" y2="0" style="height:auto;overflow-x:visible;overflow-y:visible;width:auto;perspective-origin:0px 0px;transform-origin:0px 0px;fill:none;shape-rendering:crispEdges;stroke:rgb(163, 163, 163);"/><text dy=".32em" x="-9" y="0" style="display:block;font-family:Helvetica, Arial, sans-serif;font-size:12px;height:14px;overflow-x:visible;overflow-y:visible;white-space:nowrap;width:6.67188px;perspective-origin:3.32812px 7px;transform-origin:0px 0px;fill:rgb(163, 163, 163);text-anchor:end;">0</text></g><g class="tick" transform="translate(0,341.77215189873425)" style="height:auto;overflow-x:visible;overflow-y:visible;width:auto;perspective-origin:0px 0px;transform-origin:0px 0px;"><line x2="-6" y2="0" style="height:auto;overflow-x:visible;overflow-y:visible;width:auto;perspective-origin:0px 0px;transform-origin:0px 0px;fill:none;shape-rendering:crispEdges;stroke:rgb(163, 163, 163);"/><text dy=".32em" x="-9" y="0" style="display:block;font-family:Helvetica, Arial, sans-serif;font-size:12px;height:14px;overflow-x:visible;overflow-y:visible;white-space:nowrap;width:6.67188px;perspective-origin:3.32812px 7px;transform-origin:0px 0px;fill:rgb(163, 163, 163);text-anchor:end;">5</text></g><g class="tick" transform="translate(0,183.5443037974684)" style="height:auto;overflow-x:visible;overflow-y:visible;width:auto;perspective-origin:0px 0px;transform-origin:0px 0px;"><line x2="-6" y2="0" style="height:auto;overflow-x:visible;overflow-y:visible;width:auto;perspective-origin:0px 0px;transform-origin:0px 0px;fill:none;shape-rendering:crispEdges;stroke:rgb(163, 163, 163);"/><text dy=".32em" x="-9" y="0" style="display:block;font-family:Helvetica, Arial, sans-serif;font-size:12px;height:14px;overflow-x:visible;overflow-y:visible;white-space:nowrap;width:13.3438px;perspective-origin:6.67188px 7px;transform-origin:0px 0px;fill:rgb(163, 163, 163);text-anchor:end;">10</text></g><g class="tick" transform="translate(0,25.316455696202556)" style="height:auto;overflow-x:visible;overflow-y:visible;width:auto;perspective-origin:0px 0px;transform-origin:0px 0px;"><line x2="-6" y2="0" style="height:auto;overflow-x:visible;overflow-y:visible;width:auto;perspective-origin:0px 0px;transform-origin:0px 0px;fill:none;shape-rendering:crispEdges;stroke:rgb(163, 163, 163);"/><text dy=".32em" x="-9" y="0" style="display:block;font-family:Helvetica, Arial, sans-serif;font-size:12px;height:14px;overflow-x:visible;overflow-y:visible;white-space:nowrap;width:13.3438px;perspective-origin:6.67188px 7px;transform-origin:0px 0px;fill:rgb(163, 163, 163);text-anchor:end;">15</text></g><path class="domain" d="M-6,0H0V500H-6" style="height:auto;overflow-x:visible;overflow-y:visible;width:auto;perspective-origin:0px 0px;transform-origin:0px 0px;fill:none;shape-rendering:crispEdges;stroke:rgb(163, 163, 163);"/></g></g></svg>